<?xml version="1.0" encoding="UTF-8"?>
<svg id="Ebene_2" data-name="Ebene 2" xmlns="http://www.w3.org/2000/svg" viewBox="0 0 316.21 200.31">
  <defs>
    <style>
      .cls-1 {
        fill: #fff;
      }
    </style>
  </defs>
  <g id="Ebene_1-2" data-name="Ebene 1">
    <path class="cls-1" d="M67.07,87.7c-4.24,3.66-8.16,7.04-12.08,10.42-3.86,3.33-7.73,6.66-11.77,10.13-1.11-1.26-2.08-2.37-3.2-3.63,.78-.7,1.41-1.28,2.06-1.84,7.81-6.74,15.59-13.51,23.45-20.19,1.29-1.09,1.75-2.22,1.73-3.88-.09-7.43-.04-14.87-.04-22.31v-2.74h4.83c.12,7.49,0,15.02,.07,23.05,15.3-13.07,30.22-25.82,45.14-38.55,14.93-12.73,29.87-25.45,44.81-38.17,.17,.08,.34,.17,.51,.25V2.8c0,18.23,.02,36.46-.04,54.69,0,1.76,.5,2.91,1.88,4.05,19.16,15.97,38.19,32.11,57.43,47.98,10.67,8.8,21.68,17.18,32.54,25.75,.36,.28,.75,.52,1.52,1.05V53.66h4.8c.05,.99,.16,1.99,.16,2.99,0,26.55-.01,53.09,.02,79.64,0,5.05-.75,3.47,3.27,6.67,6.07,4.83,12.18,9.6,18.27,14.41,.68,.54,1.35,1.1,2.19,1.79-.97,1.25-1.87,2.42-2.95,3.83-6.84-5.38-13.53-10.64-20.26-15.93-.63,1.72-.87,43.57-.29,48.23,2.94,.02,5.95,.04,8.95,.05,3.12,0,6.24,0,9.36,0h36.79v4.48c-1.7,.51-312.43,.71-316.21,.18v-4.62H67.07V87.7Zm95.66-21.07V195.03c2.99,.55,62.75,.41,64.62-.18v-1.82c0-23.5-.02-46.99,.04-70.49,0-1.57-.61-2.46-1.72-3.39-20.3-16.96-40.57-33.96-60.85-50.94-.59-.49-1.22-.93-2.08-1.57ZM93.01,195.23V65.45c-.65,.5-1.1,.8-1.5,1.15-5.87,5.07-11.7,10.18-17.65,15.17-1.38,1.16-1.81,2.37-1.8,4.11,.07,11.6,.03,23.19,.03,34.79,0,23.91,0,47.82,0,71.73,0,.92,.05,1.84,.08,2.83h20.82ZM232.37,124.31v70.74c3.04,.53,21.78,.39,23.49-.16,.03-.53,.1-1.09,.1-1.64,0-16.22,0-32.43,.03-48.65,0-1.33-.43-2.21-1.47-3.02-6.87-5.35-13.7-10.75-20.55-16.13-.42-.33-.88-.62-1.6-1.13Zm-103.27-63.41c.6-.21,1.06-.31,1.46-.51,8.48-4.29,16.94-8.62,25.44-12.85,1.38-.69,1.73-1.56,1.72-3-.05-10.63-.03-21.26-.03-31.89,0-.61-.08-1.22-.14-2.11-.61,.4-1.01,.62-1.35,.91-8.64,7.35-17.27,14.73-25.94,22.05-1.03,.87-1.38,1.8-1.37,3.09,.04,7.43,.02,14.86,.03,22.3,0,.61,.1,1.22,.18,2.02Zm-31.08,15.82c.67-.24,.97-.32,1.24-.46,7.7-3.89,15.37-7.82,23.1-11.66,1.3-.64,1.65-1.51,1.65-2.83-.03-6.95,0-13.91-.03-20.86,0-.49-.19-.98-.34-1.74-8.45,7.21-16.65,14.2-24.83,21.24-.42,.36-.74,1.07-.75,1.62-.06,4.79-.03,9.57-.03,14.69Zm58.7,42.06c-9.49-5.36-18.41-10.58-27.67-15.7v29.72c9.28-4.7,18.28-9.26,27.67-14.02Zm-1.19-37.68c-9.06-4.59-17.63-8.94-26.46-13.41v28.5c8.88-5.07,17.45-9.95,26.46-15.09Zm-26.45,86.76c8.91-5.09,17.52-10.01,26.42-15.1-8.98-4.54-17.55-9.01-26.42-13.35v28.45Zm-6.26-68.12c-2.91-2.24-22.99-13.51-24.63-13.87-.42,3.92-.25,25.91,.26,27.77,8.12-4.63,16.2-9.24,24.37-13.9Zm.08,71.62c-4.64-3.23-22.98-13.45-24.74-13.81v27.91c8.37-4.77,16.44-9.37,24.74-14.1Zm6.16,23.78c4.83,.51,26.76,.3,28.55-.27,.03-.67,.01-1.39,.1-2.09,.17-1.29-.37-2.03-1.5-2.67-8.63-4.86-17.22-9.79-25.83-14.68-.36-.21-.81-.27-1.32-.43v20.13Zm28.47-9.88v-27.7c-3.11,1.17-22.91,12.66-24.06,13.97,7.93,4.52,15.83,9.03,24.06,13.72Zm-24.21-85.83c2.4,2,22.53,13.33,24.19,13.66,.46-3.68,.28-25.53-.27-27.33-7.97,4.55-15.91,9.09-23.92,13.66Zm-9.43,5.35c-8.3,4.73-16.23,9.26-24.24,13.82,2.77,2.04,22.56,11.89,24.24,12.07v-25.89Zm-1.29,31.28c-8.36-4.24-16.3-8.26-24.34-12.33-.46,3.5-.33,22.63,.19,24.6,7.97-4.05,15.89-8.07,24.15-12.27Zm34.95-12.22c-8.15,4.14-15.9,8.07-24.07,12.22,8.26,4.19,16.03,8.14,24.07,12.22v-24.44Zm.06-71.68c-8.16,4.14-15.96,8.09-23.86,12.1,3.11,2.22,22.2,11.67,23.86,11.85v-23.95Zm-59.43,143.01h25.48c.53-2.65,.45-16.61-.12-18.45-.71,.38-1.41,.72-2.09,1.11-7,3.99-13.96,8.06-21.03,11.93-1.89,1.03-2.77,2.2-2.39,4.3,.06,.3,.09,.61,.15,1.12Zm25.68-54.23c-7.83,3.97-15.4,7.81-23.3,11.83,7.89,4.5,15.47,8.81,23.3,13.28v-25.11Zm-.14-46.63c.51-3.61,.36-22.98-.13-24.65-3.28,1.12-21.4,10.5-22.56,11.71,7.5,4.27,14.97,8.53,22.7,12.94Z"/>
  </g>
</svg>